<svg xmlns="http://www.w3.org/2000/svg" width="106" height="36" viewBox="0 0 106 36" role="img" aria-label="LinkedIn"><title>LinkedIn</title><rect x=".5" y=".5" width="105" height="35" rx="8" fill="#161b22" stroke="#30363d"/><svg x="14" y="10" width="16" height="16" viewBox="0 0 128 128"><g fill="#0A66C2"><path d="M116 3H12a8.91 8.91 0 00-9 8.8v104.42a8.91 8.91 0 009 8.78h104a8.93 8.93 0 009-8.81V11.77A8.93 8.93 0 00116 3zM39.17 107H21.06V48.73h18.11zm-9-66.21a10.5 10.5 0 1110.49-10.5 10.5 10.5 0 01-10.54 10.48zM107 107H88.89V78.65c0-6.75-.12-15.44-9.41-15.44s-10.87 7.36-10.87 15V107H50.53V48.73h17.36v8h.24c2.42-4.58 8.32-9.41 17.13-9.41C103.6 47.28 107 59.35 107 75z"/></g></svg><text x="38" y="23" font-family="-apple-system,BlinkMacSystemFont,'Segoe UI','Helvetica Neue',Helvetica,Arial,sans-serif" font-size="13" font-weight="600" fill="#e6edf3">LinkedIn</text></svg>